<?xml version="1.0" encoding="utf-8"?>
<svg xmlns="http://www.w3.org/2000/svg"
	xmlns:xlink="http://www.w3.org/1999/xlink"
	width="292px" height="220px" viewBox="0 0 292 220">
<clipPath id="clip0"><rect x="0" y="0" width="292" height="220"/></clipPath><g><rect x="0" y="0" width="292" height="220" fill="rgb(182,182,182)"/><path fillRule="evenodd" d="M 177.1 138.99C 177.1 138.99 115.9 138.99 115.9 138.99 113.19 138.99 111 136.83 111 134.16 111 134.16 111 95.49 111 95.49 111 92.83 113.19 90.66 115.9 90.66 115.9 90.66 130.74 90.66 130.74 90.66 130.74 90.66 130.59 90.37 130.59 87.04 130.59 83.7 133.33 80.99 136.71 80.99 136.71 80.99 156.29 80.99 156.29 80.99 159.67 80.99 162.41 83.7 162.41 87.04 162.41 90.37 162.57 90.66 162.57 90.66 162.57 90.66 177.1 90.66 177.1 90.66 179.81 90.66 182 92.83 182 95.49 182 95.49 182 134.16 182 134.16 182 136.83 179.81 138.99 177.1 138.99ZM 146.61 129.26C 154.72 129.26 161.3 122.77 161.3 114.76 161.3 106.76 154.72 100.26 146.61 100.26 138.5 100.26 131.92 106.76 131.92 114.76 131.92 122.77 138.5 129.26 146.61 129.26Z" fill="rgb(255,255,255)" clip-path="url(#clip0)"/></g></svg>