<?xml version="1.0" encoding="utf-8"?>
<svg xmlns="http://www.w3.org/2000/svg"
	xmlns:xlink="http://www.w3.org/1999/xlink"
	width="1170px" height="580px" viewBox="0 0 1170 580">
<clipPath id="clip0"><rect x="0" y="0" width="1170" height="580"/></clipPath><g><rect x="0" y="0" width="1170" height="580" fill="rgb(242,155,17)"/><path fillRule="evenodd" d="M 616.1 319C 616.1 319 554.9 319 554.9 319 552.19 319 550 316.83 550 314.16 550 314.16 550 275.5 550 275.5 550 272.83 552.19 270.67 554.9 270.67 554.9 270.67 569.74 270.67 569.74 270.67 569.74 270.67 569.59 270.38 569.59 267.04 569.59 263.7 572.33 261 575.71 261 575.71 261 595.29 261 595.29 261 598.67 261 601.41 263.7 601.41 267.04 601.41 270.38 601.57 270.67 601.57 270.67 601.57 270.67 616.1 270.67 616.1 270.67 618.81 270.67 621 272.83 621 275.5 621 275.5 621 314.16 621 314.16 621 316.83 618.81 319 616.1 319ZM 585.61 309.27C 593.72 309.27 600.3 302.77 600.3 294.77 600.3 286.76 593.72 280.27 585.61 280.27 577.5 280.27 570.92 286.76 570.92 294.77 570.92 302.77 577.5 309.27 585.61 309.27Z" fill="rgb(255,255,255)" clip-path="url(#clip0)"/></g></svg>