<?xml version="1.0" encoding="utf-8"?>
<svg xmlns="http://www.w3.org/2000/svg"
	xmlns:xlink="http://www.w3.org/1999/xlink"
	width="16px" height="11px" viewBox="0 0 16 11">
<path fillRule="evenodd" d="M 14 0.25C 14 0.25 2 0.25 2 0.25 0.9 0.25-0 1.14-0 2.25-0 2.25-0 8.75-0 8.75-0 9.85 0.9 10.75 2 10.75 2 10.75 14 10.75 14 10.75 15.1 10.75 16 9.85 16 8.75 16 8.75 16 2.25 16 2.25 16 1.14 15.1 0.25 14 0.25ZM 1 2.87C 1 2.87 4.5 5.5 4.5 5.5 4.5 5.5 1 8.12 1 8.12 1 8.12 1 2.87 1 2.87ZM 15 8.75C 15 9.3 14.55 9.75 14 9.75 14 9.75 2 9.75 2 9.75 1.45 9.75 1 9.3 1 8.75 1 8.75 4.92 5.81 4.92 5.81 4.92 5.81 7.1 7.45 7.1 7.45 7.37 7.65 7.68 7.75 8 7.75 8.32 7.75 8.63 7.65 8.9 7.45 8.9 7.45 11.08 5.81 11.08 5.81 11.08 5.81 15 8.75 15 8.75 15 8.75 15 8.75 15 8.75ZM 15 8.12C 15 8.12 11.5 5.5 11.5 5.5 11.5 5.5 15 2.87 15 2.87 15 2.87 15 8.12 15 8.12ZM 8.6 7.05C 8.43 7.18 8.22 7.25 8 7.25 7.78 7.25 7.57 7.18 7.4 7.05 7.4 7.05 5.33 5.5 5.33 5.5 5.33 5.5 4.92 5.18 4.92 5.18 4.92 5.18 1 2.25 1 2.25 1 2.25 1 2.25 1 2.25 1 1.69 1.45 1.25 2 1.25 2 1.25 14 1.25 14 1.25 14.55 1.25 15 1.69 15 2.25 15 2.25 8.6 7.05 8.6 7.05Z" fill="rgb(127,127,127)"/></svg>