<?xml version="1.0" encoding="utf-8"?>
<svg xmlns="http://www.w3.org/2000/svg"
	xmlns:xlink="http://www.w3.org/1999/xlink"
	width="18px" height="18px" viewBox="0 0 18 18">
<path fillRule="evenodd" d="M 16.5 1.48C 15.58 0.56 14.37 0.04 13.17 0.04 12.16 0.04 11.23 0.41 10.56 1.09 10.56 1.09 7.83 3.83 7.83 3.83 7.82 3.84 7.81 3.85 7.8 3.85 7.8 3.86 7.8 3.87 7.79 3.87 7.79 3.87 7.79 3.87 7.79 3.87 7.79 3.87 2.01 9.7 2.01 9.7 1.74 9.96 1.55 10.29 1.44 10.65 1.44 10.65 0.13 15.42 0.13 15.42 0.13 15.43 0.04 15.81 0.04 16 0.04 17.08 0.92 17.96 2 17.96 2.22 17.96 2.64 17.85 2.65 17.85 2.65 17.85 7.4 16.6 7.4 16.6 7.76 16.5 8.09 16.3 8.35 16.03 8.35 16.03 16.9 7.42 16.9 7.42 18.45 5.86 18.28 3.26 16.5 1.48ZM 9.01 13.36C 8.96 12.86 8.82 12.36 8.61 11.89 8.61 11.89 13.9 6.6 13.9 6.6 14.22 7.62 14.06 8.69 13.35 9.4 13.34 9.4 13.34 9.41 13.33 9.41 13.33 9.41 13.34 9.42 13.34 9.42 13.34 9.42 9.01 13.78 9.01 13.78 9.01 13.64 9.02 13.5 9.01 13.36ZM 8.32 11.38C 8.12 11.04 7.88 10.71 7.58 10.41 7.24 10.07 6.85 9.8 6.44 9.58 6.44 9.58 11.78 4.24 11.78 4.24 12.2 4.42 12.6 4.69 12.95 5.04 13.25 5.34 13.49 5.68 13.67 6.04 13.67 6.04 8.32 11.38 8.32 11.38ZM 5.91 9.31C 5.39 9.1 4.85 8.98 4.31 8.98 4.31 8.98 8.62 4.63 8.62 4.63 9.28 3.98 10.24 3.8 11.19 4.04 11.19 4.04 5.91 9.31 5.91 9.31ZM 2.37 16.77C 2.31 16.78 2.12 16.83 1.99 16.84 1.53 16.83 1.16 16.46 1.16 16 1.17 15.9 1.2 15.74 1.22 15.68 1.22 15.68 1.81 13.55 1.81 13.55 2.45 13.53 3.14 13.78 3.68 14.32 4.23 14.87 4.49 15.57 4.46 16.22 4.46 16.22 2.37 16.77 2.37 16.77ZM 5.01 16.07C 5 15.32 4.69 14.54 4.07 13.92 3.49 13.34 2.73 13 1.96 12.97 1.96 12.97 2.52 10.95 2.52 10.95 2.56 10.82 2.64 10.69 2.74 10.57 3.86 9.77 5.59 10 6.79 11.2 8.06 12.47 8.26 14.33 7.28 15.44 7.21 15.48 7.15 15.51 7.08 15.53 7.08 15.53 5.01 16.07 5.01 16.07ZM 16.11 6.63C 16.11 6.63 15.16 7.58 15.16 7.58 15.16 7.45 15.18 7.33 15.17 7.2 15.07 6.12 14.56 5.07 13.74 4.25 12.83 3.34 11.62 2.82 10.42 2.81 10.42 2.81 11.35 1.88 11.35 1.88 11.82 1.41 12.46 1.16 13.17 1.16 14.07 1.16 15 1.56 15.71 2.27 16.38 2.94 16.78 3.77 16.83 4.61 16.89 5.39 16.63 6.11 16.11 6.63Z" fill="rgb(127,127,127)"/></svg>