<?xml version="1.0" encoding="utf-8"?>
<svg xmlns="http://www.w3.org/2000/svg"
	xmlns:xlink="http://www.w3.org/1999/xlink"
	width="188px" height="188px" viewBox="0 0 188 188">
<clipPath id="clip0"><circle cx="94.00" cy="94.00" r="94.00"/></clipPath><g><circle cx="94.00" cy="94.00" r="94.00" fill="rgb(231,247,243)"/><path fillRule="evenodd" d="M 108.3 104.74C 116.96 106.02 118.74 108.84 120.38 110.41 122.01 111.98 121.97 119.15 121.97 119.15 121.97 119.15 97.39 119.18 97.39 119.18 97.39 119.18 99.76 113.38 99.76 113.38 99.76 113.38 96.46 99.64 96.46 99.64 96.46 102.14 95.17 101.74 95.17 101.74 95.17 101.74 93.08 101.74 93.08 101.74 91.44 101.74 91.54 100.47 91.61 100.08 91.61 100.08 91.63 99.96 91.63 99.96 91.63 99.96 91.62 100.01 91.61 100.08 91.61 100.08 89.06 113.38 89.06 113.38 89.06 113.38 91.31 119.19 91.31 119.19 91.31 119.19 65.99 119.23 65.99 119.23 65.99 119.23 66.43 111.98 68.06 110.41 69.7 108.84 71.36 106.02 80.02 104.74 88.69 103.45 88.06 98.87 88.34 99.01 88.29 97.28 88.12 94.84 88.12 94.84 88.12 94.84 84.58 92.92 83.25 89.12 80.46 87.99 80.83 87.27 80.56 85.81 80.56 85.81 79.71 79.92 81.6 80.04 81.6 80.04 82.89 80.04 82.59 78.68 82.49 76.43 82.28 72.53 82.43 71.02 82.58 69.52 83.29 65.46 86.44 64.85 89.58 64.25 88.32 64.55 89.37 64.4 90.42 64.25 90.12 63.65 92.06 63.65 92.06 63.65 96.11 63 96.11 63 98.05 63 99.3 65.89 100.35 66.04 101.4 66.19 101.41 65.58 103.55 65.98 106.7 66.58 106.26 70.72 106.41 72.22 106.56 73.73 106.66 77.63 106.36 78.99 106.06 80.34 107 80.19 107 80.19 109.24 80.19 108.13 85.96 108.13 85.96 107.79 87.49 107.64 87.68 105.54 89 104.22 92.81 100.62 95.14 100.62 95.14 100.62 95.14 100.64 98.04 100.62 98.73 100.68 99 100.19 103.53 108.3 104.74ZM 95.01 125.01C 95.01 125.01 93.56 125.01 93.56 125.01 93.56 125.01 91.31 119.19 91.31 119.19 91.31 119.19 97.39 119.18 97.39 119.18 97.39 119.18 95.01 125.01 95.01 125.01Z" fill="rgb(255,255,255)" clip-path="url(#clip0)"/></g></svg>